<?xml version="1.0" standalone="no"?>
<!DOCTYPE svg PUBLIC "-//W3C//DTD SVG 20010904//EN"
 "http://www.w3.org/TR/2001/REC-SVG-20010904/DTD/svg10.dtd">
<svg version="1.0" xmlns="http://www.w3.org/2000/svg"
 width="144.000000pt" height="144.000000pt" viewBox="0 0 144.000000 144.000000"
 preserveAspectRatio="xMidYMid meet">
<metadata>
Created by potrace 1.14, written by Peter Selinger 2001-2017
</metadata>
<g transform="translate(0.000000,144.000000) scale(0.100000,-0.100000)"
fill="#000000" stroke="none">
<path d="M645 1336 c-63 -29 -129 -102 -150 -167 -22 -65 -56 -82 -130 -63
-78 21 -160 28 -182 15 -32 -17 -33 -44 -2 -121 16 -39 29 -72 29 -74 0 -1
-22 -31 -49 -65 -31 -41 -62 -69 -89 -81 l-40 -18 -7 -88 c-11 -124 -1 -250
20 -274 9 -10 37 -21 65 -25 44 -6 51 -11 86 -62 40 -58 109 -116 184 -153 24
-13 56 -31 70 -41 21 -15 49 -18 175 -20 83 -1 205 0 273 2 l123 5 42 41 c23
22 68 65 100 94 97 89 147 218 147 382 0 77 1 80 16 59 8 -12 25 -22 38 -22
30 0 60 34 53 60 -3 13 0 23 9 27 8 3 14 16 14 29 0 29 -24 31 -85 9 -22 -8
-45 -14 -51 -15 -6 0 -20 24 -32 53 -29 69 -101 159 -162 203 -42 30 -50 41
-50 68 0 89 -72 196 -161 241 -68 35 -182 35 -254 1z m220 -50 c89 -41 135
-115 135 -213 0 -88 -2 -89 -106 -62 -71 18 -116 23 -221 23 l-133 1 0 48 c0
26 6 62 13 80 35 83 130 147 217 147 26 0 66 -10 95 -24z m-519 -233 c59 -13
83 -14 105 -6 27 10 29 9 29 -12 0 -12 -7 -25 -15 -29 -16 -6 -20 -41 -6 -50
5 -4 40 1 78 10 130 31 334 7 461 -53 29 -14 59 -22 67 -19 22 8 18 33 -7 50
-17 12 -19 20 -12 35 9 19 11 18 53 -17 56 -46 117 -140 137 -210 18 -61 20
-195 4 -266 -51 -228 -260 -349 -575 -333 -205 11 -347 77 -430 202 -40 60
-60 75 -102 75 -15 0 -33 4 -39 8 -17 11 -26 112 -18 202 6 79 7 81 39 94 33
14 155 163 155 190 0 8 -13 44 -30 80 l-29 66 29 0 c16 0 64 -8 106 -17z"/>
<path d="M853 1233 c-21 -8 -15 -32 20 -73 50 -61 97 -47 63 19 -17 32 -62 61
-83 54z"/>
<path d="M322 788 c-7 -7 -12 -26 -12 -43 0 -36 15 -55 45 -55 30 0 45 19 45
55 0 36 -15 55 -45 55 -12 0 -26 -5 -33 -12z"/>
</g>
</svg>
